<?xml version="1.0" standalone="no"?>
<!DOCTYPE svg PUBLIC "-//W3C//DTD SVG 20010904//EN"
 "http://www.w3.org/TR/2001/REC-SVG-20010904/DTD/svg10.dtd">
<svg version="1.0" xmlns="http://www.w3.org/2000/svg"
 width="512.000000pt" height="512.000000pt" viewBox="0 0 512.000000 512.000000"
 preserveAspectRatio="xMidYMid meet">
<metadata>
Created by potrace 1.11, written by Peter Selinger 2001-2013
</metadata>
<g transform="translate(0.000000,512.000000) scale(0.100000,-0.100000)"
fill="#000000" stroke="none">
<path d="M2130 5102 c-80 -26 -141 -65 -197 -125 -81 -86 -123 -176 -138 -299
-6 -44 -8 -47 -59 -73 -70 -35 -156 -121 -195 -194 -60 -112 -65 -153 -58
-471 10 -443 40 -854 126 -1730 71 -721 93 -988 111 -1393 12 -262 14 -243
-41 -447 -45 -166 -58 -265 -39 -309 26 -65 -27 -61 920 -61 947 0 894 -4 920
61 19 44 6 143 -39 309 -22 80 -42 161 -46 180 -7 40 8 392 30 710 18 241 37
461 95 1045 78 794 107 1207 116 1630 5 239 4 290 -10 349 -39 163 -160 302
-305 351 -41 13 -49 21 -79 79 -86 167 -253 264 -435 254 -45 -3 -101 -12
-125 -21 l-43 -15 -54 54 c-36 36 -81 67 -131 91 -68 32 -86 37 -172 40 -75 2
-110 -1 -152 -15z m247 -219 c29 -13 62 -37 73 -53 l20 -29 -43 -64 c-55 -82
-73 -136 -61 -178 20 -69 110 -95 161 -47 14 12 36 45 50 71 34 68 100 136
153 160 90 40 200 20 273 -51 44 -42 63 -75 83 -143 17 -55 50 -86 103 -94 56
-10 113 -33 143 -60 29 -25 78 -92 78 -106 0 -4 -86 -9 -191 -11 l-191 -3 -29
-33 -29 -32 0 -321 c0 -202 -4 -327 -10 -340 -16 -30 -68 -26 -80 7 -6 14 -10
161 -10 343 0 308 -1 318 -21 340 -11 12 -32 26 -46 32 -34 13 -443 12 -481
-2 -54 -19 -80 -81 -57 -136 23 -54 58 -63 245 -63 l160 0 0 -277 c0 -271 1
-279 24 -328 58 -125 207 -179 332 -121 57 26 118 92 136 145 7 22 13 142 15
309 l5 272 125 0 126 0 -7 -227 c-6 -236 -23 -546 -32 -620 l-5 -43 -830 0
c-456 0 -829 1 -830 3 -8 34 -31 493 -35 732 -7 317 -7 321 16 372 33 78 101
137 188 163 93 27 102 40 102 152 0 113 24 181 84 236 53 49 75 61 129 71 57
11 102 4 164 -26z m993 -1934 c0 -12 -29 -330 -65 -708 -73 -765 -100 -1099
-111 -1368 l-7 -181 -89 -4 c-83 -3 -91 -5 -113 -31 l-24 -27 -157 0 -156 0
-35 30 c-47 41 -99 41 -146 0 -28 -24 -44 -30 -81 -30 -33 0 -48 5 -53 15 -13
37 -56 45 -231 45 l-169 0 -7 182 c-11 270 -38 603 -111 1369 -36 378 -65 696
-65 708 l0 21 810 0 810 0 0 -21z"/>
<path d="M2024 4270 c-64 -26 -83 -109 -36 -160 38 -42 86 -49 132 -18 68 46
60 142 -15 174 -39 16 -51 16 -81 4z"/>
<path d="M2935 2072 c-114 -19 -129 -176 -21 -212 110 -36 197 97 116 178 -29
30 -59 41 -95 34z"/>
</g>
</svg>
